Coordinates
version=1
nRows=14
nColumns=40
inDegrees=yes

Units are S.I. units (second, meters, Newtons, ...)
Angles are in degrees.

endheader
time	pelvis_tilt	pelvis_list	pelvis_rotation	pelvis_tx	pelvis_ty	pelvis_tz	hip_flexion_r	hip_adduction_r	hip_rotation_r	knee_angle_r	knee_angle_r_beta	ankle_angle_r	subtalar_angle_r	mtp_angle_r	hip_flexion_l	hip_adduction_l	hip_rotation_l	knee_angle_l	knee_angle_l_beta	ankle_angle_l	subtalar_angle_l	mtp_angle_l	lumbar_extension	lumbar_bending	lumbar_rotation	arm_flex_r	arm_add_r	arm_rot_r	elbow_flex_r	pro_sup_r	wrist_flex_r	wrist_dev_r	arm_flex_l	arm_add_l	arm_rot_l	elbow_flex_l	pro_sup_l	wrist_flex_l	wrist_dev_l
     42.62500000	     -5.35332447	     -5.15021839	     -1.18219771	      1.07314764	      0.92609983	      0.50306201	     20.77683986	      2.94443967	    -13.76934051	     17.97494797	     17.97494797	      5.27812510	      5.34226966	     -0.12150543	     10.15002706	    -11.89991135	     -4.66839957	     50.56349821	     50.56349821	      6.90691706	    -13.45007667	     -5.73376803	    -10.87004930	      7.67516152	      2.55883611	      4.08709775	    -16.08157338	     -4.15442006	     42.72035231	     45.29851863	      0.00000000	      0.00000000	     10.04287552	    -12.93208343	      4.94716556	     71.19427864	     47.53825901	      0.00000000	      0.00000000
     42.63685714	     -5.35363970	     -5.19245928	     -0.82466867	      1.07261165	      0.92719007	      0.50481169	     19.94543246	      3.00131454	    -14.37250319	     17.50560917	     17.50560917	      5.62962633	      6.09891892	     -0.37398348	     12.45387977	    -12.18069778	     -3.67493845	     54.11817092	     54.11817092	      5.57579249	    -14.64412329	     -4.00122052	    -10.98291588	      7.75940131	      2.15420174	      5.53281918	    -16.34984225	     -4.12394234	     43.88517645	     45.27181965	      0.00000000	      0.00000000	      9.01022796	    -12.57858857	      4.61433515	     67.09978604	     47.48736017	      0.00000000	      0.00000000
     42.64871429	     -5.33144401	     -5.32877585	     -0.48494549	      1.07187105	      0.92811895	      0.50663706	     19.10048402	      3.20010303	    -14.93552222	     17.01472598	     17.01472598	      5.91952456	      6.75487075	     -0.72181186	     14.81543016	    -12.59358628	     -2.78486313	     57.52183257	     57.52183257	      5.39078502	    -15.04194464	     -0.56133334	    -11.06737075	      7.85584504	      2.37431367	      6.37551979	    -16.98561273	     -3.74838900	     45.53204172	     45.21344167	      0.00000000	      0.00000000	      8.89604865	    -11.57098261	      3.92169880	     61.48806025	     47.44435300	      0.00000000	      0.00000000
     42.66057143	     -5.38745001	     -5.46986788	     -0.17065446	      1.07093501	      0.92872754	      0.50846009	     18.35132985	      3.44812208	    -15.32517844	     16.50935064	     16.50935064	      6.21819295	      7.17750011	     -0.92858749	     17.22088674	    -13.01984973	     -2.00138085	     60.46127736	     60.46127736	      5.21620652	    -15.42484067	      1.89271991	    -11.10720539	      7.95543585	      2.35530354	      7.41556930	    -17.45216719	     -3.57606630	     47.26434096	     45.16184169	      0.00000000	      0.00000000	      8.18385083	    -11.18246654	      3.77480002	     57.38880580	     47.37926647	      0.00000000	      0.00000000
     42.67242857	     -5.42939972	     -5.73657761	      0.10504176	      1.06976026	      0.92913431	      0.51033207	     17.72901612	      3.83612604	    -15.62893132	     16.21523274	     16.21523274	      6.50993226	      7.36770413	     -1.00876654	     19.53846295	    -13.57911745	     -1.25388972	     62.84261479	     62.84261479	      4.62839515	    -15.98547774	      2.29203411	    -11.26695734	      8.11790103	      2.62910272	      8.61778362	    -17.98991874	     -3.70371557	     48.05332814	     45.14916577	      0.00000000	      0.00000000	      6.86444508	    -11.03052710	      3.88251089	     55.72039140	     47.33245406	      0.00000000	      0.00000000
     42.68428571	     -5.44779534	     -5.81690096	      0.41896732	      1.06860011	      0.92962006	      0.51192708	     17.06341955	      3.98119748	    -16.07519793	     15.90938206	     15.90938206	      6.82575344	      7.84059787	     -1.25212459	     21.80846793	    -13.84315104	     -0.53168848	     64.83935317	     64.83935317	      5.33037084	    -16.04163867	      5.11086645	    -11.27887874	      8.14615715	      2.74437233	      9.51795400	    -18.55964606	     -2.89398191	     50.08910825	     45.06415387	      0.00000000	      0.00000000	      7.25865427	    -10.29575671	      3.35585224	     48.76594984	     47.27215186	      0.00000000	      0.00000000
     42.69614286	     -5.54296516	     -6.04314956	      0.66203734	      1.06723247	      0.92979287	      0.51368012	     16.57108711	      4.33208074	    -16.26551861	     15.70854713	     15.70854713	      7.14695015	      7.91825008	     -1.31691913	     24.05977550	    -14.31271753	      0.09436656	     66.22136119	     66.22136119	      5.29486891	    -16.30120526	      5.24121304	    -11.35566102	      8.25689414	      2.94115850	     10.76986366	    -18.95685679	     -3.03718236	     50.99899153	     45.04899896	      0.00000000	      0.00000000	      5.88624481	    -10.31972991	      3.42271789	     47.17747046	     47.22792613	      0.00000000	      0.00000000
     42.70800000	     -5.60791171	     -6.19050924	      0.91702950	      1.06584346	      0.92997899	      0.51531918	     16.07037022	      4.59000770	    -16.46272248	     15.54338395	     15.54338395	      7.50054028	      8.01809399	     -1.37959579	     26.17750100	    -14.63550499	      0.68248643	     67.06346183	     67.06346183	      5.51697111	    -16.43368025	      5.50954933	    -11.42590515	      8.29062885	      2.66261586	     12.27464267	    -18.99267446	     -2.94347650	     52.31333786	     45.01204041	      0.00000000	      0.00000000	      4.67492150	    -10.47280118	      3.47616945	     44.41819650	     47.17373900	      0.00000000	      0.00000000
     42.71985714	     -5.55835315	     -6.17774361	      1.05836650	      1.06451791	      0.93043833	      0.51680006	     15.51088668	      4.66767506	    -16.52135606	     15.52961617	     15.52961617	      7.91702297	      8.16185177	     -1.33573738	     27.96788188	    -14.78225581	      1.03087681	     67.33945791	     67.33945791	      6.16838992	    -16.37334112	      6.60359078	    -11.59393922	      8.17583540	      3.27219902	     13.23743882	    -19.87080978	     -1.82060850	     53.73999683	     44.94758463	      0.00000000	      0.00000000	      4.95534908	     -9.94352186	      3.14928642	     38.68601302	     47.12746994	      0.00000000	      0.00000000
     42.73171429	     -5.60124938	     -6.26045625	      1.21623318	      1.06308078	      0.93062642	      0.51826316	     15.05301429	      4.85842437	    -16.58120032	     15.47723036	     15.47723036	      8.28091713	      8.16603673	     -1.40150040	     29.76603520	    -15.00236203	      1.38991403	     67.07701164	     67.07701164	      6.45341425	    -16.38503101	      6.54999235	    -11.72096229	      8.11464913	      3.43592911	     14.60633281	    -20.06435455	     -1.96187688	     54.67805577	     44.93276357	      0.00000000	      0.00000000	      3.50936930	    -10.13303463	      3.16136937	     37.43865719	     47.09006743	      0.00000000	      0.00000000
     42.74357143	     -5.59217582	     -6.26016318	      1.37122477	      1.06165364	      0.93092895	      0.51952560	     14.54301939	      4.95286197	    -16.59725737	     15.44071855	     15.44071855	      8.66215793	      8.19604062	     -1.39798879	     31.33016450	    -15.08194332	      1.65566159	     66.27561428	     66.27561428	      6.74731268	    -16.35397657	      6.62155647	    -11.88594378	      8.01475357	      3.26293939	     16.18540327	    -20.08331715	     -1.69866887	     55.94219560	     44.89743009	      0.00000000	      0.00000000	      2.19265033	    -10.34347353	      3.18275983	     35.24604588	     47.03946365	      0.00000000	      0.00000000
     42.75542857	     -5.59533567	     -6.27242198	      1.51323231	      1.06020296	      0.93116696	      0.52059023	     14.05000404	      5.04378319	    -16.63741512	     15.40186932	     15.40186932	      9.02230968	      8.21977995	     -1.38418267	     32.75923554	    -15.12832958	      1.86515393	     65.00459473	     65.00459473	      7.02670307	    -16.32066534	      6.73557826	    -12.04291912	      7.92954796	      3.42050290	     17.61658501	    -20.27998331	     -1.29871057	     56.99156322	     44.86477313	      0.00000000	      0.00000000	      1.00272732	    -10.45721347	      3.19329081	     33.40369437	     46.99384887	      0.00000000	      0.00000000
     42.76728571	     -5.59048968	     -6.27091321	      1.64812208	      1.05874283	      0.93139821	      0.52148048	     13.51686694	      5.13034081	    -16.64121879	     15.30746748	     15.30746748	      9.38212764	      8.24238173	     -1.40609816	     34.02078130	    -15.12545601	      1.99130938	     63.28890898	     63.28890898	      7.19206799	    -16.30675817	      6.94814493	    -12.19774090	      7.84630514	      3.51490936	     19.05165478	    -20.41547385	     -1.08958571	     58.05775189	     44.83466770	      0.00000000	      0.00000000	     -0.36202155	    -10.62704035	      3.23431124	     32.07088651	     46.95055413	      0.00000000	      0.00000000
     42.77914286	     -5.59982899	     -6.30496866	      1.79093708	      1.05722814	      0.93153920	      0.52213141	     13.01001507	      5.22145876	    -16.73413848	     15.23340470	     15.23340470	      9.78676297	      8.38659500	     -1.27821981	     35.15478540	    -15.10603847	      2.08558529	     61.18187010	     61.18187010	      7.37020035	    -16.24344450	      7.32562484	    -12.32419546	      7.83096065	      3.63458642	     20.40045144	    -20.96341966	      0.41650154	     59.51910588	     44.77114173	      0.00000000	      0.00000000	     -1.43101037	    -10.65569817	      3.18574681	     30.13857093	     46.88170543	      0.00000000	      0.00000000
